<svg xmlns="http://www.w3.org/2000/svg" viewBox="0 0 995 232" role="img" aria-label="Baliza">
  <path d="M 758.00,82.00 L 758.00,96.00 L 762.00,95.00 L 786.00,95.00 L 787.00,96.00 L 807.00,95.00 L 808.00,96.00 L 815.00,96.00 L 816.00,98.00 L 755.00,180.00 L 755.00,187.00 L 756.00,188.00 L 841.00,188.00 L 841.00,174.00 L 780.00,174.00 L 779.00,173.00 L 785.00,163.00 L 840.00,91.00 L 840.00,82.00 Z M 705.00,82.00 L 705.00,188.00 L 721.00,188.00 L 721.00,82.00 Z M 880.00,94.00 L 874.00,101.00 L 867.00,113.00 L 864.00,124.00 L 863.00,140.00 L 864.00,141.00 L 865.00,151.00 L 871.00,165.00 L 884.00,179.00 L 894.00,185.00 L 903.00,188.00 L 913.00,189.00 L 914.00,190.00 L 922.00,190.00 L 939.00,186.00 L 950.00,180.00 L 960.00,171.00 L 961.00,172.00 L 961.00,188.00 L 976.00,188.00 L 976.00,82.00 L 961.00,82.00 L 961.00,97.00 L 960.00,98.00 L 947.00,87.00 L 939.00,83.00 L 929.00,80.00 L 908.00,80.00 L 900.00,82.00 L 891.00,86.00 Z M 909.00,95.00 L 914.00,95.00 L 915.00,94.00 L 930.00,95.00 L 943.00,101.00 L 953.00,111.00 L 960.00,126.00 L 960.00,132.00 L 961.00,133.00 L 960.00,143.00 L 954.00,157.00 L 942.00,169.00 L 931.00,174.00 L 927.00,175.00 L 911.00,175.00 L 898.00,170.00 L 887.00,160.00 L 880.00,146.00 L 879.00,130.00 L 880.00,129.00 L 881.00,121.00 L 885.00,113.00 L 896.00,101.00 Z M 504.00,97.00 L 495.00,111.00 L 491.00,124.00 L 490.00,139.00 L 491.00,140.00 L 491.00,147.00 L 494.00,157.00 L 500.00,168.00 L 508.00,177.00 L 517.00,183.00 L 529.00,188.00 L 548.00,190.00 L 549.00,189.00 L 556.00,189.00 L 566.00,186.00 L 577.00,180.00 L 587.00,171.00 L 588.00,172.00 L 588.00,188.00 L 604.00,188.00 L 604.00,82.00 L 588.00,82.00 L 588.00,97.00 L 587.00,98.00 L 572.00,86.00 L 566.00,83.00 L 555.00,80.00 L 535.00,80.00 L 518.00,86.00 Z M 541.00,94.00 L 557.00,95.00 L 568.00,100.00 L 580.00,111.00 L 587.00,126.00 L 587.00,132.00 L 588.00,133.00 L 587.00,144.00 L 581.00,157.00 L 569.00,169.00 L 561.00,173.00 L 553.00,175.00 L 538.00,175.00 L 531.00,173.00 L 522.00,168.00 L 511.00,156.00 L 506.00,141.00 L 507.00,124.00 L 513.00,111.00 L 523.00,101.00 L 533.00,96.00 Z M 648.00,47.00 L 647.00,48.00 L 647.00,188.00 L 662.00,188.00 L 663.00,187.00 L 663.00,48.00 L 662.00,47.00 Z M 353.00,47.00 L 352.00,48.00 L 352.00,144.00 L 355.00,156.00 L 359.00,164.00 L 364.00,171.00 L 374.00,180.00 L 383.00,185.00 L 396.00,189.00 L 401.00,189.00 L 402.00,190.00 L 421.00,189.00 L 431.00,186.00 L 439.00,182.00 L 446.00,177.00 L 456.00,166.00 L 464.00,147.00 L 465.00,129.00 L 464.00,128.00 L 463.00,119.00 L 457.00,105.00 L 452.00,98.00 L 439.00,87.00 L 425.00,81.00 L 413.00,80.00 L 412.00,79.00 L 399.00,80.00 L 389.00,83.00 L 379.00,88.00 L 369.00,97.00 L 368.00,96.00 L 368.00,74.00 L 367.00,73.00 L 368.00,69.00 L 368.00,48.00 L 367.00,47.00 L 358.00,47.00 L 357.00,48.00 Z M 398.00,95.00 L 414.00,94.00 L 427.00,98.00 L 432.00,101.00 L 441.00,110.00 L 448.00,124.00 L 449.00,128.00 L 449.00,142.00 L 443.00,157.00 L 431.00,169.00 L 420.00,174.00 L 416.00,175.00 L 400.00,175.00 L 387.00,170.00 L 375.00,159.00 L 368.00,144.00 L 368.00,127.00 L 371.00,118.00 L 375.00,111.00 L 385.00,101.00 Z M 707.00,47.00 L 704.00,51.00 L 704.00,61.00 L 705.00,63.00 L 712.00,66.00 L 720.00,64.00 L 722.00,61.00 L 722.00,50.00 L 719.00,47.00 L 715.00,46.00 Z M 97.00,18.00 L 96.00,19.00 L 85.00,20.00 L 76.00,23.00 L 62.00,30.00 L 52.00,37.00 L 40.00,49.00 L 34.00,57.00 L 25.00,74.00 L 20.00,90.00 L 19.00,102.00 L 18.00,103.00 L 18.00,129.00 L 19.00,130.00 L 19.00,138.00 L 20.00,139.00 L 21.00,147.00 L 25.00,159.00 L 31.00,171.00 L 38.00,181.00 L 52.00,195.00 L 64.00,203.00 L 84.00,211.00 L 95.00,212.00 L 96.00,213.00 L 112.00,213.00 L 114.00,211.00 L 114.00,176.00 L 110.00,159.00 L 104.00,147.00 L 98.00,139.00 L 86.00,128.00 L 73.00,121.00 L 63.00,118.00 L 64.00,116.00 L 74.00,113.00 L 89.00,104.00 L 102.00,90.00 L 110.00,75.00 L 113.00,64.00 L 113.00,58.00 L 114.00,57.00 L 114.00,20.00 L 113.00,18.00 Z" fill="#FFFFFF" fill-rule="evenodd"/>
  <path d="M 160.00,18.00 L 159.00,20.00 L 159.00,61.00 L 163.00,76.00 L 172.00,92.00 L 184.00,104.00 L 191.00,109.00 L 201.00,114.00 L 206.00,115.00 L 208.00,117.00 L 207.00,119.00 L 204.00,119.00 L 193.00,124.00 L 179.00,134.00 L 168.00,148.00 L 162.00,161.00 L 159.00,174.00 L 159.00,212.00 L 160.00,213.00 L 179.00,213.00 L 199.00,208.00 L 211.00,202.00 L 221.00,195.00 L 233.00,183.00 L 240.00,173.00 L 247.00,159.00 L 252.00,141.00 L 252.00,91.00 L 247.00,73.00 L 240.00,59.00 L 232.00,48.00 L 217.00,34.00 L 202.00,25.00 L 188.00,20.00 L 180.00,19.00 L 179.00,18.00 Z" fill="#FFFFFF" fill-rule="evenodd"/>
</svg>